<?xml version="1.0" standalone="no"?>
<!DOCTYPE svg PUBLIC "-//W3C//DTD SVG 20010904//EN"
 "http://www.w3.org/TR/2001/REC-SVG-20010904/DTD/svg10.dtd">
<svg version="1.0" xmlns="http://www.w3.org/2000/svg"
 width="600.000000pt" height="600.000000pt" viewBox="0 0 600.000000 600.000000"
 preserveAspectRatio="xMidYMid meet">
<metadata>
Created by potrace 1.14, written by Peter Selinger 2001-2017
</metadata>
<g transform="translate(0.000000,600.000000) scale(0.100000,-0.100000)"
fill="#000000" stroke="none">
<path d="M1390 5294 c-29 -36 -82 -114 -117 -172 l-63 -107 -47 -1 c-35 -1
-51 -7 -65 -24 -28 -35 -23 -75 13 -103 24 -18 30 -29 25 -45 -6 -19 -12 -20
-56 -15 l-49 6 -16 -55 c-18 -64 -13 -83 26 -104 16 -8 29 -16 29 -17 0 -1 -9
-45 -20 -97 -29 -136 -36 -356 -16 -488 32 -210 114 -400 237 -550 33 -40 59
-75 57 -76 -2 -1 -18 -9 -37 -16 -76 -30 -74 -125 5 -210 63 -67 148 -110 269
-135 27 -6 22 -10 -64 -45 -128 -53 -281 -159 -281 -195 0 -22 36 -45 88 -55
29 -5 68 -18 88 -28 l36 -18 -71 -32 c-68 -31 -71 -33 -71 -66 0 -28 9 -42 53
-83 30 -26 82 -64 118 -82 35 -19 65 -35 66 -35 1 -1 -9 -31 -24 -66 -44 -109
-42 -304 4 -342 12 -10 17 -9 25 7 6 11 32 40 57 65 l46 45 5 -68 c3 -41 10
-71 18 -76 8 -5 41 -11 75 -14 98 -10 305 -65 393 -106 44 -21 114 -61 155
-88 41 -28 102 -65 137 -82 119 -60 158 -169 136 -380 -6 -56 -9 -62 -33 -67
-107 -21 -200 -51 -281 -91 -121 -60 -237 -170 -292 -278 -40 -76 -68 -193
-68 -278 l0 -55 -67 -40 c-38 -23 -95 -51 -128 -63 -33 -13 -76 -37 -95 -54
-20 -17 -71 -45 -115 -63 -81 -33 -130 -71 -199 -155 -37 -45 -106 -166 -106
-185 0 -9 77 -12 295 -12 l296 0 -16 29 c-26 51 -64 178 -71 240 -6 58 -6 60
22 74 16 8 69 29 117 46 64 22 89 27 92 18 50 -144 93 -232 162 -332 l48 -70
88 -3 c48 -1 87 0 87 3 0 3 -31 46 -69 96 -180 237 -264 482 -216 630 49 152
179 306 315 373 42 20 98 39 127 43 l52 6 -9 -32 c-6 -17 -14 -44 -19 -61 -5
-16 -39 -73 -75 -128 -82 -123 -144 -254 -158 -334 -22 -126 22 -367 97 -525
l34 -73 631 0 631 0 34 73 c75 158 119 399 97 525 -14 80 -76 211 -158 334
-36 55 -70 112 -75 128 -5 17 -13 44 -19 61 l-9 32 52 -6 c172 -21 377 -213
442 -416 48 -148 -36 -393 -216 -629 -38 -50 -69 -94 -69 -97 0 -3 39 -4 87
-3 l88 3 48 70 c69 100 112 188 162 332 3 9 28 4 92 -18 48 -17 101 -38 117
-46 28 -14 28 -16 22 -74 -7 -62 -45 -189 -71 -240 l-16 -29 296 0 c218 0 295
3 295 12 0 19 -69 140 -106 185 -69 84 -118 122 -199 155 -44 18 -95 46 -115
63 -19 17 -62 41 -95 54 -33 12 -90 40 -127 63 l-68 40 0 57 c-1 231 -140 445
-360 554 -81 40 -174 70 -281 91 -24 5 -27 11 -33 67 -22 211 17 320 136 380
35 17 96 54 137 82 41 27 111 67 155 88 88 41 295 96 393 106 34 3 67 9 75 14
8 5 15 35 18 76 l5 68 46 -45 c25 -25 51 -54 57 -65 8 -16 13 -17 25 -7 46 38
48 233 4 342 -15 35 -25 65 -24 66 1 0 31 16 66 35 36 18 88 56 118 82 44 41
53 55 53 83 0 33 -3 35 -71 66 l-71 32 36 18 c20 10 59 23 88 28 52 10 88 33
88 55 0 36 -153 142 -281 195 -86 35 -91 39 -64 45 121 25 206 68 269 135 79
85 81 180 5 210 -19 7 -35 14 -37 16 -2 1 26 38 61 82 81 100 130 186 172 306
58 160 70 239 69 441 -1 243 -32 391 -133 624 -85 198 -258 461 -303 461 -28
0 -218 -99 -323 -169 -106 -69 -286 -222 -367 -309 -75 -82 -142 -176 -183
-259 l-33 -67 -41 85 c-39 84 -134 238 -153 250 -6 4 -22 4 -35 0 -20 -5 -29
-19 -45 -66 -10 -33 -21 -90 -25 -127 l-6 -66 -41 40 c-52 50 -197 121 -301
148 -131 34 -306 46 -448 32 -122 -13 -261 -42 -279 -60 -6 -6 -58 38 -141
122 -138 137 -244 224 -376 306 -100 62 -255 140 -279 140 -11 0 -41 -28 -72
-66z m137 0 c224 -142 493 -380 613 -544 68 -93 114 -176 105 -190 -8 -13 -71
-13 -225 0 -165 14 -217 25 -428 92 -52 17 -65 18 -79 7 -37 -32 19 -304 87
-419 104 -176 193 -264 350 -342 77 -39 99 -54 82 -56 -13 -2 -30 2 -39 9 -13
11 -18 10 -33 -8 -16 -21 -159 -83 -190 -83 -9 0 -16 -11 -17 -29 -2 -26 5
-35 52 -66 30 -20 55 -41 55 -48 0 -7 -9 -64 -19 -128 -11 -63 -23 -147 -27
-187 -6 -65 -10 -75 -40 -102 -76 -66 -233 -47 -335 40 l-34 29 27 1 c33 0 58
24 58 56 0 21 5 24 37 24 l36 0 -119 123 c-165 168 -231 269 -287 442 -57 173
-74 425 -42 611 21 119 24 127 43 119 9 -3 51 -9 93 -12 l76 -6 12 33 c15 43
14 85 -1 98 -11 8 -66 26 -145 48 -10 3 -10 9 -1 29 8 17 17 24 27 20 9 -4 43
-9 77 -12 56 -5 62 -4 78 18 20 29 21 72 2 88 -7 6 -37 18 -65 27 -28 8 -51
18 -51 22 1 25 188 332 202 332 4 0 34 -16 65 -36z m3078 -57 c190 -293 283
-573 292 -889 6 -180 -10 -303 -56 -440 -58 -173 -120 -268 -285 -437 l-121
-123 108 7 109 7 -17 -32 c-25 -48 -94 -113 -148 -138 -59 -28 -161 -39 -209
-23 -58 19 -86 57 -93 126 -14 142 -48 334 -67 385 -28 73 -75 167 -87 175 -6
3 -22 -2 -36 -11 -21 -13 -41 -16 -99 -11 -104 8 -195 58 -271 151 l-38 47 22
23 c30 32 60 131 66 219 6 80 34 189 72 285 69 171 260 391 502 576 114 87
272 195 286 196 6 0 37 -42 70 -93z m-3359 -286 c83 -21 94 -27 94 -47 0 -20
-69 -18 -137 3 -50 16 -67 36 -46 56 9 9 8 9 89 -12z m2307 -438 c23 -109 33
-221 18 -207 -25 23 -112 171 -121 205 -20 74 -41 245 -34 279 7 35 7 33 64
-82 36 -73 63 -146 73 -195z m-2357 237 c81 -22 114 -38 114 -57 0 -20 -31
-20 -120 -1 -101 21 -140 36 -140 53 0 32 40 33 146 5z m1509 9 c207 -25 384
-92 540 -204 90 -64 89 -65 -12 -13 -120 63 -194 79 -403 88 -199 9 -258 21
-430 94 l-75 31 45 6 c78 10 241 9 335 -2z m-230 -124 c28 -10 54 -21 58 -25
14 -12 -52 -20 -79 -10 -20 8 -31 6 -51 -10 -14 -11 -29 -20 -33 -20 -7 0 -80
134 -80 146 0 2 30 -11 68 -29 37 -19 90 -42 117 -52z m-792 -104 c112 -77
376 -191 562 -244 126 -36 305 -75 427 -93 202 -30 563 -29 718 2 14 3 -1 -9
-32 -26 -32 -16 -74 -33 -95 -36 -21 -3 -41 -8 -45 -10 -22 -13 -241 -34 -363
-34 -548 -1 -1062 168 -1230 404 -22 31 -43 65 -47 76 -7 19 -6 19 27 6 19 -8
54 -28 78 -45z m1352 18 c97 -23 222 -83 289 -139 52 -43 48 -51 -12 -21 -106
54 -354 111 -589 136 -81 9 -148 17 -151 19 -6 6 127 26 193 28 102 5 187 -2
270 -23z m-1160 -49 c146 -31 342 -37 480 -15 123 19 187 17 425 -16 244 -34
479 -104 593 -176 30 -19 37 -27 26 -33 -77 -42 -547 -49 -789 -11 -286 43
-562 125 -759 223 -64 32 -107 56 -96 53 11 -2 65 -14 120 -25z m-84 -226
c209 -161 520 -282 834 -325 l90 -12 -60 -19 c-104 -32 -232 -44 -348 -30
-103 11 -264 58 -295 85 -9 8 -45 29 -80 47 -78 41 -160 121 -225 220 -45 69
-97 171 -97 191 0 5 28 -18 61 -51 34 -34 88 -81 120 -106z m371 -138 c205
-63 408 -91 660 -91 108 0 191 -3 184 -7 -7 -4 -47 -19 -90 -33 -78 -26 -81
-26 -205 -15 -215 19 -454 80 -613 155 -58 28 -57 27 64 -9z m1279 -11 c-66
-76 -94 -153 -137 -382 -10 -51 -22 -93 -26 -93 -5 0 -20 24 -34 53 -21 44
-24 65 -23 142 1 77 6 98 30 146 43 86 138 163 208 168 7 1 -1 -15 -18 -34z
m36 -47 c-19 -24 -49 -65 -67 -93 -37 -58 -31 -23 8 45 28 50 80 106 89 97 3
-3 -11 -25 -30 -49z m-255 -51 c-6 -7 -28 -56 -48 -108 -20 -52 -42 -97 -49
-102 -23 -13 -88 -128 -123 -217 -32 -83 -33 -84 -27 -35 19 155 100 337 192
431 30 30 57 53 60 50 3 -3 1 -12 -5 -19z m-142 -72 c-45 -66 -86 -158 -111
-250 -17 -64 -22 -110 -23 -232 l-1 -152 -23 44 c-62 123 -69 291 -17 400 41
86 88 148 147 195 28 22 52 40 55 40 2 0 -10 -20 -27 -45z m520 -78 c106 -104
165 -131 296 -135 l101 -4 23 -41 c37 -65 58 -190 48 -278 -10 -85 -43 -205
-60 -215 -6 -4 -23 -8 -37 -10 -73 -8 -369 -24 -459 -24 -127 0 -279 -16 -334
-36 -23 -8 -56 -26 -74 -39 -28 -21 -43 -25 -104 -25 -61 0 -76 4 -104 25 -79
60 -197 75 -590 75 l-284 0 -25 29 c-45 54 -82 251 -64 343 9 44 13 49 31 45
48 -12 152 -39 164 -43 9 -3 3 -17 -21 -46 -38 -47 -71 -107 -64 -115 3 -2 34
16 70 40 97 67 165 89 267 90 130 0 273 -48 379 -127 19 -14 44 -26 56 -26 13
0 27 -13 40 -37 31 -57 102 -151 124 -162 40 -22 48 -6 54 109 10 171 46 301
109 394 l25 36 21 -48 c12 -27 22 -51 22 -54 0 -3 -14 -11 -30 -18 -39 -16
-44 -39 -28 -135 15 -94 28 -102 92 -57 114 82 245 125 376 125 102 -1 170
-23 267 -90 36 -24 67 -42 70 -40 9 10 -36 84 -81 134 -92 102 -210 154 -351
155 -44 1 -95 -2 -112 -6 -42 -10 -42 0 -2 84 22 48 109 200 114 200 0 0 34
-33 75 -73z m-775 18 c-114 -55 -295 -109 -470 -141 -101 -18 -393 -31 -452
-19 l-38 8 32 13 c66 28 300 63 488 73 197 11 248 20 400 70 116 39 127 38 40
-4z m68 -31 c-20 -52 -245 -187 -358 -214 -96 -23 -223 -30 -323 -19 -86 9
-267 50 -299 67 -6 4 58 5 144 3 85 -2 199 2 252 9 174 21 447 96 551 151 19
10 36 18 37 19 1 0 0 -7 -4 -16z m-133 -239 c0 -9 -6 -12 -16 -8 -13 5 -13 7
-2 14 17 11 18 11 18 -6z m-1371 -272 c0 -5 -4 -16 -8 -26 -6 -17 -8 -16 -19
7 -10 23 -9 26 8 26 11 0 20 -3 19 -7z m69 -26 c4 -20 -25 -34 -40 -19 -15 15
-1 44 19 40 10 -2 19 -11 21 -21z m454 -426 c10 -128 38 -193 103 -247 56 -46
115 -67 256 -95 119 -24 321 -32 407 -16 40 7 42 6 31 -12 -7 -10 -10 -25 -6
-33 19 -51 220 -158 297 -158 77 0 278 107 297 158 4 8 1 23 -6 33 -11 18 -9
19 31 12 86 -16 288 -8 407 16 141 28 200 49 256 95 65 54 93 119 103 246 7
80 15 120 36 167 l28 62 39 -20 c22 -11 62 -25 90 -32 43 -12 48 -15 35 -26
-29 -24 -17 -36 52 -54 37 -10 119 -43 182 -73 l115 -56 -65 -19 c-85 -25
-190 -77 -190 -94 0 -27 135 -105 181 -105 25 0 33 -18 18 -37 -8 -8 -46 -37
-85 -64 -40 -26 -81 -60 -92 -74 l-20 -25 24 -68 c21 -59 33 -172 19 -172 -3
0 -25 10 -47 21 -40 20 -143 59 -158 59 -4 0 4 -36 16 -81 36 -122 35 -124
-96 -126 -139 -3 -222 -22 -337 -79 -145 -72 -471 -300 -488 -342 -2 -7 -10
-43 -15 -80 -31 -188 8 -419 102 -607 34 -70 63 -113 140 -208 10 -12 26 -53
35 -90 l18 -69 -30 -25 c-158 -132 -385 -213 -595 -213 -210 0 -437 81 -595
213 l-30 25 18 69 c9 37 25 78 35 90 77 95 106 138 140 208 94 188 133 419
102 607 -5 37 -13 73 -15 80 -17 42 -343 270 -488 342 -115 57 -198 76 -337
79 -131 2 -132 4 -96 126 12 45 20 81 16 81 -15 0 -118 -39 -158 -59 -22 -11
-44 -21 -47 -21 -14 0 -2 113 19 172 l24 68 -20 25 c-11 14 -52 48 -92 74 -39
27 -77 56 -85 64 -15 19 -7 37 18 37 46 0 181 78 181 105 0 17 -105 69 -190
94 l-65 19 115 56 c63 30 145 63 183 73 68 18 80 30 51 54 -13 11 -8 14 35 26
28 7 68 21 89 32 l37 20 29 -61 c23 -49 31 -82 38 -167z m770 154 c16 -6 16
-10 2 -36 -11 -22 -22 -29 -44 -29 -16 0 -32 5 -35 10 -7 12 -45 13 -45 2 0
-14 43 -49 68 -57 48 -14 112 37 112 90 0 24 26 18 50 -12 20 -25 22 -36 17
-100 -3 -40 -11 -84 -19 -99 -16 -33 -99 -77 -190 -100 -166 -43 -331 37 -419
202 -40 74 -43 100 -18 125 21 21 26 21 263 17 132 -3 249 -8 258 -13z m1018
-3 c0 -50 -55 -78 -100 -50 -13 9 -23 9 -30 2 -15 -15 28 -52 68 -60 27 -6 37
-1 67 29 25 25 35 44 35 67 l0 32 88 -7 c121 -10 129 -14 138 -71 10 -72 -3
-205 -24 -234 -31 -43 -107 -87 -184 -106 -57 -15 -110 -19 -248 -19 -96 0
-187 3 -202 8 -20 5 -35 22 -53 57 -34 67 -32 76 13 41 76 -61 140 -85 232
-89 133 -5 246 43 343 147 37 39 117 174 117 196 0 6 -76 45 -90 45 -5 0 -10
-8 -10 -18 0 -32 -59 -139 -106 -191 -117 -130 -289 -153 -472 -63 -68 34 -82
57 -89 156 -5 66 -4 74 18 98 20 23 36 28 104 36 44 5 149 10 233 11 139 1
152 0 152 -17z m-1630 -129 c46 -93 146 -193 237 -236 63 -29 76 -32 173 -32
116 0 157 14 246 81 51 39 54 33 19 -36 -18 -35 -33 -52 -53 -57 -15 -5 -106
-8 -202 -8 -202 0 -291 17 -368 69 -73 50 -82 68 -89 184 -3 56 -4 102 -1 102
3 0 20 -30 38 -67z m1019 -38 c6 -6 22 -50 36 -98 14 -49 36 -109 49 -135 l24
-47 -198 0 -198 0 23 45 c23 46 45 110 65 188 7 28 19 46 33 52 28 12 153 8
166 -5z"/>
<path d="M1688 3288 c-15 -12 -22 -35 -19 -65 2 -20 45 -43 68 -37 12 3 27 19
33 35 23 55 -36 102 -82 67z m50 -46 c2 -14 -2 -22 -12 -22 -19 0 -29 17 -22
36 8 22 30 12 34 -14z"/>
<path d="M3028 2129 c-133 -19 -299 -80 -312 -114 -7 -20 6 -19 88 9 93 32
235 48 346 40 l88 -7 42 34 42 34 -38 7 c-51 9 -185 8 -256 -3z"/>
</g>
</svg>
